<svg width="64" height="64" xmlns="http://www.w3.org/2000/svg" fill="#ffffff" version="1.1" xml:space="preserve">
 <g id="Layer_1">
  <title>Layer 1</title>
  <g id="svg_1">
   <g id="svg_2">
    <g id="svg_3">
     <path id="svg_4" d="m19.98844,48.54946l-4.79736,0l-7.29668,-13.92463l1.51756,-2.68307c-0.48612,-1.07788 -0.83372,-2.23481 -1.02689,-3.44523c-0.07305,-0.45629 -0.12207,-0.91429 -0.15021,-1.37217l-4.20053,7.42665l7.33542,13.99845l-2.85623,0c-2.11969,0 -3.84405,1.94101 -3.84405,4.32675l0,3.49808l19.16304,0l0,-3.49808c0,-2.38573 -1.72447,-4.32675 -3.84405,-4.32675z"/>
    </g>
   </g>
   <g id="svg_5">
    <g id="svg_6">
     <path id="svg_7" d="m56.00793,9.22234l-35.04476,0c-1.89384,0 -3.43466,1.73419 -3.43466,3.86595l0,0.80869c1.24928,-0.23253 2.53114,-0.22474 3.79925,0.03167c2.24122,0.45325 4.27964,1.65379 5.89482,3.47178l2.22521,2.50462l-11.78497,13.26455l41.77978,0l0,-20.08131c0,-2.13176 -1.54083,-3.86595 -3.43466,-3.86595z"/>
    </g>
   </g>
   <g id="svg_8">
    <g id="svg_9">
     <path id="svg_10" d="m17.52851,36.87427l0,5.17855c0,2.13164 1.54072,3.86583 3.43466,3.86583l9.82295,0l-0.58038,6.75098l-2.71641,0l0,3.70468l2.39792,0l17.19637,0l2.39792,0l0,-3.70468l-2.71641,0l-0.58027,-6.75098l9.82285,0c1.89384,0 3.43466,-1.73419 3.43466,-3.86583l0,-5.17855l-41.91387,0z"/>
    </g>
   </g>
   <g id="svg_11">
    <g id="svg_12">
     <path id="svg_13" d="m16.20023,18.17403l-1.02884,0.50648l-4.68005,-5.26784l-2.5649,2.88698l4.68005,5.26772l-0.44987,1.15803c-1.28446,3.30673 -0.67865,7.08412 1.53877,9.67072l11.0968,-12.48997c-2.29815,-2.4961 -5.65403,-3.17774 -8.59196,-1.73211l0.00001,0z"/>
    </g>
   </g>
  </g>
 </g>

</svg>
